<svg width="154" height="26" viewBox="0 0 154 26" fill="none" xmlns="http://www.w3.org/2000/svg">
<path d="M0.926492 0.545454H8.54545L15.0085 16.3054H15.3068L21.7699 0.545454H29.3889V26H23.3981V10.3643H23.1868L17.0717 25.8384H13.2436L7.12855 10.2773H6.91726V26H0.926492V0.545454ZM39.3786 0.545454V26H33.2263V0.545454H39.3786ZM43.2409 26V0.545454H49.3933V21.0036H59.9828V26H43.2409ZM63.1677 26V0.545454H69.32V21.0036H79.9095V26H63.1677ZM83.0945 26V0.545454H100.843V5.5419H89.2468V10.7621H99.9357V15.771H89.2468V21.0036H100.843V26H83.0945ZM126.36 0.545454V26H121.14L111.01 11.3089H110.848V26H104.696V0.545454H109.991L120.009 15.2116H120.22V0.545454H126.36ZM128.96 0.545454H135.834L141.215 11.1971H141.439L146.821 0.545454H153.694L144.385 17.4986V26H138.27V17.4986L128.96 0.545454Z" fill="white"/>
</svg>
